<?xml version="1.0" ?><svg data-name="Livello 1" id="Livello_1" viewBox="0 0 55.07 56.27" xmlns="http://www.w3.org/2000/svg"><defs><style>.cls-1{fill:#a2e0b8;stroke:#a2e0b8;}.cls-1,.cls-3{stroke-miterlimit:10;}.cls-2{fill:#1db654;}.cls-3{fill:none;stroke:#1db654;}</style></defs><title/><path class="cls-1" d="M50.85,17.92a23.87,23.87,0,0,0-5.92-6.81,24.7,24.7,0,0,1,1.92,2.81,23.47,23.47,0,0,1,3.22,12,23.47,23.47,0,0,1-3.22,12,24,24,0,0,1-8.73,8.73,23.47,23.47,0,0,1-12,3.22A23.47,23.47,0,0,1,14,46.75a25,25,0,0,1-2.82-1.93A24,24,0,0,0,18,50.75,23.47,23.47,0,0,0,30.07,54a23.47,23.47,0,0,0,12-3.22A24,24,0,0,0,50.85,42a23.47,23.47,0,0,0,3.22-12A23.47,23.47,0,0,0,50.85,17.92Z"/><path class="cls-2" d="M46.85,13.92A23.47,23.47,0,0,1,50.07,26a23.47,23.47,0,0,1-3.22,12,24,24,0,0,1-8.73,8.73,23.47,23.47,0,0,1-12,3.22,23.47,23.47,0,0,1-12-3.22A24,24,0,0,1,5.29,38,23.47,23.47,0,0,1,2.07,26a23.47,23.47,0,0,1,3.22-12A23.89,23.89,0,0,1,14,5.19,23.47,23.47,0,0,1,26.07,2,23.47,23.47,0,0,1,38.12,5.19,23.89,23.89,0,0,1,46.85,13.92Zm-3.86,9a2.11,2.11,0,0,0,.67-1.61,2.33,2.33,0,0,0-1.25-2.18,31.85,31.85,0,0,0-9.15-3.46A48.84,48.84,0,0,0,22.54,14.5,40.42,40.42,0,0,0,11.16,16a2.46,2.46,0,0,0-1.2.8,2.28,2.28,0,0,0-.48,1.51,2.23,2.23,0,0,0,.64,1.63,2.16,2.16,0,0,0,1.61.65A5.56,5.56,0,0,0,13,20.31a36,36,0,0,1,9.59-1.15,43.62,43.62,0,0,1,9.67,1.06,27.29,27.29,0,0,1,7.92,3,2.54,2.54,0,0,0,1.25.37A2.2,2.2,0,0,0,43,22.92Zm-3.25,7.47a1.79,1.79,0,0,0,.55-1.33,2.1,2.1,0,0,0-1.09-1.9,32.85,32.85,0,0,0-17.13-4.41,35.18,35.18,0,0,0-9.47,1.31,1.87,1.87,0,0,0-1.5,2A1.88,1.88,0,0,0,13,27.94a7.63,7.63,0,0,0,1.15-.25,29.83,29.83,0,0,1,7.85-1,29.38,29.38,0,0,1,15.25,3.87,2.75,2.75,0,0,0,1.18.41A1.79,1.79,0,0,0,39.74,30.39Zm-2.89,6.47a1.44,1.44,0,0,0,.44-1.08,1.8,1.8,0,0,0-.94-1.59,26.74,26.74,0,0,0-14-3.6,41.71,41.71,0,0,0-9,1.07,1.5,1.5,0,0,0-1.31,1.62,1.53,1.53,0,0,0,.42,1.08,1.45,1.45,0,0,0,1.11.45,8.43,8.43,0,0,0,1.16-.25,38.25,38.25,0,0,1,7.59-.84,23.54,23.54,0,0,1,12.41,3.22,2.1,2.1,0,0,0,1,.34A1.43,1.43,0,0,0,36.85,36.86Z"/><path class="cls-3" d="M50.07,26a23.47,23.47,0,0,1-3.22,12,24,24,0,0,1-8.73,8.73,23.47,23.47,0,0,1-12,3.22,23.47,23.47,0,0,1-12-3.22A24,24,0,0,1,5.29,38,23.47,23.47,0,0,1,2.07,26a23.47,23.47,0,0,1,3.22-12A23.89,23.89,0,0,1,14,5.19,23.47,23.47,0,0,1,26.07,2,23.47,23.47,0,0,1,38.12,5.19a23.89,23.89,0,0,1,8.73,8.73A23.47,23.47,0,0,1,50.07,26Z"/></svg>